<svg xmlns="http://www.w3.org/2000/svg" viewBox="0 0 800 440" width="800" height="440" fill="none">
<style>
@keyframes p{0%,100%{opacity:.35}50%{opacity:1}}
@keyframes d{to{stroke-dashoffset:-200}}
@keyframes s{from{transform:translateX(-120px)}to{transform:translateX(920px)}}
@keyframes r{to{transform:rotate(360deg)}}
@keyframes b{0%,100%{transform:scaleY(.55)}50%{transform:scaleY(1)}}
.p{animation:p 3.2s ease-in-out infinite}
.d{stroke-dasharray:6 10;animation:d 9s linear infinite}
.s{animation:s 7s linear infinite}
.b{transform-box:fill-box;transform-origin:50% 100%;animation:b 2.4s ease-in-out infinite}
@media (prefers-reduced-motion:reduce){*{animation:none!important}}
</style>
<defs>
<filter id="g" x="-50%" y="-50%" width="200%" height="200%"><feGaussianBlur stdDeviation="3" result="b"/><feMerge><feMergeNode in="b"/><feMergeNode in="SourceGraphic"/></feMerge></filter>
<filter id="gs" x="-50%" y="-50%" width="200%" height="200%"><feGaussianBlur stdDeviation="8"/></filter>
<linearGradient id="lime" x1="0" y1="0" x2="0" y2="1"><stop offset="0" stop-color="#8cf523"/><stop offset="1" stop-color="#79d920" stop-opacity=".35"/></linearGradient>
<radialGradient id="halo" cx=".5" cy=".5" r=".5"><stop offset="0" stop-color="#79d920" stop-opacity=".28"/><stop offset="1" stop-color="#79d920" stop-opacity="0"/></radialGradient>
<radialGradient id="fade" cx=".5" cy=".5" r=".62"><stop offset=".55" stop-color="#fff"/><stop offset="1" stop-color="#000"/></radialGradient>
<mask id="m"><rect width="800" height="440" fill="url(#fade)"/></mask>

</defs>
<path d="M40 0V440M80 0V440M120 0V440M160 0V440M200 0V440M240 0V440M280 0V440M320 0V440M360 0V440M400 0V440M440 0V440M480 0V440M520 0V440M560 0V440M600 0V440M640 0V440M680 0V440M720 0V440M760 0V440M0 40H800M0 80H800M0 120H800M0 160H800M0 200H800M0 240H800M0 280H800M0 320H800M0 360H800M0 400H800" stroke="#e8f5e1" stroke-opacity="0.06" stroke-width="1"/><g mask="url(#m)"><rect x="40" y="214" width="4" height="12" rx="2" fill="url(#lime)" fill-opacity="1"/><rect x="47.5" y="196" width="4" height="48" rx="2" fill="url(#lime)" fill-opacity="1"/><rect x="55" y="193.3" width="4" height="53.4" rx="2" fill="url(#lime)" fill-opacity="1"/><rect x="62.5" y="178.8" width="4" height="82.4" rx="2" fill="url(#lime)" fill-opacity="1"/><rect x="70" y="201.3" width="4" height="37.4" rx="2" fill="url(#lime)" fill-opacity="1"/><rect x="77.5" y="169" width="4" height="102.1" rx="2" fill="url(#lime)" fill-opacity="1"/><rect x="85" y="184.7" width="4" height="70.6" rx="2" fill="url(#lime)" fill-opacity="1"/><rect x="92.5" y="196.1" width="4" height="47.7" rx="2" fill="url(#lime)" fill-opacity="1"/><rect x="100" y="193.9" width="4" height="52.2" rx="2" fill="url(#lime)" fill-opacity="1"/><rect x="107.5" y="143.4" width="4" height="153.1" rx="2" fill="url(#lime)" fill-opacity="1"/><rect x="115" y="139.6" width="4" height="160.7" rx="2" fill="url(#lime)" fill-opacity="1"/><rect x="122.5" y="162" width="4" height="116" rx="2" fill="url(#lime)" fill-opacity="1"/><rect x="130" y="164.4" width="4" height="111.3" rx="2" fill="url(#lime)" fill-opacity="1"/><rect x="137.5" y="155.7" width="4" height="128.6" rx="2" fill="url(#lime)" fill-opacity="1"/><rect x="145" y="149.3" width="4" height="141.4" rx="2" fill="url(#lime)" fill-opacity="1"/><rect x="152.5" y="134.4" width="4" height="171.2" rx="2" fill="url(#lime)" fill-opacity="1"/><rect x="160" y="131.4" width="4" height="177.2" rx="2" fill="url(#lime)" fill-opacity="1"/><rect x="167.5" y="156.4" width="4" height="127.3" rx="2" fill="url(#lime)" fill-opacity="1"/><rect x="175" y="150.2" width="4" height="139.7" rx="2" fill="url(#lime)" fill-opacity="1"/><rect x="182.5" y="117.6" width="4" height="204.9" rx="2" fill="url(#lime)" fill-opacity="1"/><rect x="190" y="155.9" width="4" height="128.2" rx="2" fill="url(#lime)" fill-opacity="1"/><rect x="197.5" y="144.2" width="4" height="151.5" rx="2" fill="url(#lime)" fill-opacity="1"/><rect x="205" y="176.7" width="4" height="86.5" rx="2" fill="url(#lime)" fill-opacity="1"/><rect x="212.5" y="117.1" width="4" height="205.9" rx="2" fill="url(#lime)" fill-opacity="1"/><rect x="220" y="107.3" width="4" height="225.4" rx="2" fill="url(#lime)" fill-opacity="1"/><rect x="227.5" y="149.6" width="4" height="140.8" rx="2" fill="url(#lime)" fill-opacity="1"/><rect x="235" y="165.4" width="4" height="109.1" rx="2" fill="url(#lime)" fill-opacity="1"/><rect x="242.5" y="87.2" width="4" height="265.5" rx="2" fill="url(#lime)" fill-opacity="1"/><rect x="250" y="169.4" width="4" height="101.2" rx="2" fill="url(#lime)" fill-opacity="1"/><rect x="257.5" y="135.7" width="4" height="168.6" rx="2" fill="url(#lime)" fill-opacity="1"/><rect x="265" y="134.5" width="4" height="171" rx="2" fill="url(#lime)" fill-opacity="1"/><rect x="272.5" y="169" width="4" height="102" rx="2" fill="url(#lime)" fill-opacity="1"/><rect x="280" y="167.8" width="4" height="104.3" rx="2" fill="url(#lime)" fill-opacity="1"/><rect x="287.5" y="114.4" width="4" height="211.3" rx="2" fill="url(#lime)" fill-opacity="1"/><rect x="295" y="97.4" width="4" height="245.2" rx="2" fill="url(#lime)" fill-opacity="1"/><rect x="302.5" y="169.6" width="4" height="100.9" rx="2" fill="url(#lime)" fill-opacity="1"/><rect x="310" y="113.3" width="4" height="213.5" rx="2" fill="url(#lime)" fill-opacity="1"/><rect x="317.5" y="77.8" width="4" height="284.4" rx="2" fill="url(#lime)" fill-opacity="1"/><rect x="325" y="148.8" width="4" height="142.5" rx="2" fill="url(#lime)" fill-opacity="1"/><rect x="332.5" y="112.8" width="4" height="214.4" rx="2" fill="url(#lime)" fill-opacity="1"/><rect x="340" y="138.4" width="4" height="163.2" rx="2" fill="url(#lime)" fill-opacity="1"/><rect x="347.5" y="142.5" width="4" height="155.1" rx="2" fill="url(#lime)" fill-opacity="1"/><rect x="355" y="119.9" width="4" height="200.1" rx="2" fill="url(#lime)" fill-opacity="1"/><rect x="362.5" y="97.4" width="4" height="245.2" rx="2" fill="url(#lime)" fill-opacity="1"/><rect x="370" y="142" width="4" height="156" rx="2" fill="url(#lime)" fill-opacity="1"/><rect x="377.5" y="158.9" width="4" height="122.3" rx="2" fill="url(#lime)" fill-opacity="1"/><rect x="385" y="78.3" width="4" height="283.3" rx="2" fill="url(#lime)" fill-opacity="1"/><rect x="392.5" y="106.2" width="4" height="227.7" rx="2" fill="url(#lime)" fill-opacity="1"/><rect x="400" y="133.8" width="4" height="172.3" rx="2" fill="url(#lime)" fill-opacity="1"/><rect x="407.5" y="64.5" width="4" height="311.1" rx="2" fill="url(#lime)" fill-opacity="1"/><rect x="415" y="122.1" width="4" height="195.8" rx="2" fill="url(#lime)" fill-opacity="1"/><rect x="422.5" y="156.6" width="4" height="126.7" rx="2" fill="url(#lime)" fill-opacity="1"/><rect x="430" y="148.3" width="4" height="143.4" rx="2" fill="url(#lime)" fill-opacity="1"/><rect x="437.5" y="74.1" width="4" height="291.9" rx="2" fill="url(#lime)" fill-opacity="1"/><rect x="445" y="111.6" width="4" height="216.9" rx="2" fill="url(#lime)" fill-opacity="1"/><rect x="452.5" y="122.5" width="4" height="194.9" rx="2" fill="url(#lime)" fill-opacity="1"/><rect x="460" y="158" width="4" height="124" rx="2" fill="url(#lime)" fill-opacity="1"/><rect x="467.5" y="129.9" width="4" height="180.1" rx="2" fill="url(#lime)" fill-opacity="1"/><rect x="475" y="158.3" width="4" height="123.5" rx="2" fill="#e8f5e1" fill-opacity="0.14"/><rect x="482.5" y="177.7" width="4" height="84.5" rx="2" fill="#e8f5e1" fill-opacity="0.14"/><rect x="490" y="104" width="4" height="231.9" rx="2" fill="#e8f5e1" fill-opacity="0.14"/><rect x="497.5" y="97.7" width="4" height="244.6" rx="2" fill="#e8f5e1" fill-opacity="0.14"/><rect x="505" y="163.6" width="4" height="112.8" rx="2" fill="#e8f5e1" fill-opacity="0.14"/><rect x="512.5" y="122.6" width="4" height="194.9" rx="2" fill="#e8f5e1" fill-opacity="0.14"/><rect x="520" y="103" width="4" height="233.9" rx="2" fill="#e8f5e1" fill-opacity="0.14"/><rect x="527.5" y="90" width="4" height="260.1" rx="2" fill="#e8f5e1" fill-opacity="0.14"/><rect x="535" y="143" width="4" height="153.9" rx="2" fill="#e8f5e1" fill-opacity="0.14"/><rect x="542.5" y="140.5" width="4" height="159" rx="2" fill="#e8f5e1" fill-opacity="0.14"/><rect x="550" y="118.9" width="4" height="202.3" rx="2" fill="#e8f5e1" fill-opacity="0.14"/><rect x="557.5" y="102" width="4" height="236" rx="2" fill="#e8f5e1" fill-opacity="0.14"/><rect x="565" y="134.7" width="4" height="170.7" rx="2" fill="#e8f5e1" fill-opacity="0.14"/><rect x="572.5" y="138.1" width="4" height="163.8" rx="2" fill="#e8f5e1" fill-opacity="0.14"/><rect x="580" y="111.7" width="4" height="216.5" rx="2" fill="#e8f5e1" fill-opacity="0.14"/><rect x="587.5" y="98.4" width="4" height="243.1" rx="2" fill="#e8f5e1" fill-opacity="0.14"/><rect x="595" y="156.4" width="4" height="127.3" rx="2" fill="#e8f5e1" fill-opacity="0.14"/><rect x="602.5" y="109.7" width="4" height="220.6" rx="2" fill="#e8f5e1" fill-opacity="0.14"/><rect x="610" y="168.9" width="4" height="102.3" rx="2" fill="#e8f5e1" fill-opacity="0.14"/><rect x="617.5" y="164.3" width="4" height="111.3" rx="2" fill="#e8f5e1" fill-opacity="0.14"/><rect x="625" y="112.6" width="4" height="214.9" rx="2" fill="#e8f5e1" fill-opacity="0.14"/><rect x="632.5" y="133.6" width="4" height="172.8" rx="2" fill="#e8f5e1" fill-opacity="0.14"/><rect x="640" y="173.8" width="4" height="92.5" rx="2" fill="#e8f5e1" fill-opacity="0.14"/><rect x="647.5" y="186.4" width="4" height="67.2" rx="2" fill="#e8f5e1" fill-opacity="0.14"/><rect x="655" y="170.8" width="4" height="98.5" rx="2" fill="#e8f5e1" fill-opacity="0.14"/><rect x="662.5" y="137.3" width="4" height="165.4" rx="2" fill="#e8f5e1" fill-opacity="0.14"/><rect x="670" y="144.9" width="4" height="150.2" rx="2" fill="#e8f5e1" fill-opacity="0.14"/><rect x="677.5" y="181.3" width="4" height="77.4" rx="2" fill="#e8f5e1" fill-opacity="0.14"/><rect x="685" y="166" width="4" height="108" rx="2" fill="#e8f5e1" fill-opacity="0.14"/><rect x="692.5" y="155.6" width="4" height="128.7" rx="2" fill="#e8f5e1" fill-opacity="0.14"/><rect x="700" y="176.5" width="4" height="87.1" rx="2" fill="#e8f5e1" fill-opacity="0.14"/><rect x="707.5" y="183.3" width="4" height="73.3" rx="2" fill="#e8f5e1" fill-opacity="0.14"/><rect x="715" y="185.1" width="4" height="69.9" rx="2" fill="#e8f5e1" fill-opacity="0.14"/><rect x="722.5" y="193.6" width="4" height="52.8" rx="2" fill="#e8f5e1" fill-opacity="0.14"/><rect x="730" y="174.1" width="4" height="91.9" rx="2" fill="#e8f5e1" fill-opacity="0.14"/><rect x="737.5" y="199" width="4" height="42" rx="2" fill="#e8f5e1" fill-opacity="0.14"/><rect x="745" y="191.8" width="4" height="56.3" rx="2" fill="#e8f5e1" fill-opacity="0.14"/><rect x="752.5" y="199.1" width="4" height="41.9" rx="2" fill="#e8f5e1" fill-opacity="0.14"/></g>
<rect x="472" y="40" width="2" height="360" fill="#8cf523" filter="url(#g)"/>
<circle cx="473" cy="40" r="5" fill="#8cf523" filter="url(#g)" class="p"/>
<path d="M40 220H760" stroke="#79d920" stroke-opacity=".25"/>
</svg>
