<svg xmlns="http://www.w3.org/2000/svg" viewBox="0 0 800 440" width="800" height="440" fill="none">
<style>
@keyframes p{0%,100%{opacity:.35}50%{opacity:1}}
@keyframes d{to{stroke-dashoffset:-200}}
@keyframes s{from{transform:translateX(-120px)}to{transform:translateX(920px)}}
@keyframes r{to{transform:rotate(360deg)}}
@keyframes b{0%,100%{transform:scaleY(.55)}50%{transform:scaleY(1)}}
.p{animation:p 3.2s ease-in-out infinite}
.d{stroke-dasharray:6 10;animation:d 9s linear infinite}
.s{animation:s 7s linear infinite}
.b{transform-box:fill-box;transform-origin:50% 100%;animation:b 2.4s ease-in-out infinite}
@media (prefers-reduced-motion:reduce){*{animation:none!important}}
</style>
<defs>
<filter id="g" x="-50%" y="-50%" width="200%" height="200%"><feGaussianBlur stdDeviation="3" result="b"/><feMerge><feMergeNode in="b"/><feMergeNode in="SourceGraphic"/></feMerge></filter>
<filter id="gs" x="-50%" y="-50%" width="200%" height="200%"><feGaussianBlur stdDeviation="8"/></filter>
<linearGradient id="lime" x1="0" y1="0" x2="0" y2="1"><stop offset="0" stop-color="#8cf523"/><stop offset="1" stop-color="#79d920" stop-opacity=".35"/></linearGradient>
<radialGradient id="halo" cx=".5" cy=".5" r=".5"><stop offset="0" stop-color="#79d920" stop-opacity=".28"/><stop offset="1" stop-color="#79d920" stop-opacity="0"/></radialGradient>
<radialGradient id="fade" cx=".5" cy=".5" r=".62"><stop offset=".55" stop-color="#fff"/><stop offset="1" stop-color="#000"/></radialGradient>
<mask id="m"><rect width="800" height="440" fill="url(#fade)"/></mask>

</defs>
<path d="M40 0V440M80 0V440M120 0V440M160 0V440M200 0V440M240 0V440M280 0V440M320 0V440M360 0V440M400 0V440M440 0V440M480 0V440M520 0V440M560 0V440M600 0V440M640 0V440M680 0V440M720 0V440M760 0V440M0 40H800M0 80H800M0 120H800M0 160H800M0 200H800M0 240H800M0 280H800M0 320H800M0 360H800M0 400H800" stroke="#e8f5e1" stroke-opacity="0.06" stroke-width="1"/><g mask="url(#m)"><rect class="b" style="animation-delay:0.2s" x="60" y="237.2" width="11" height="142.8" rx="2" fill="url(#lime)"/><rect class="b" style="animation-delay:1.3s" x="77" y="226.8" width="11" height="153.2" rx="2" fill="url(#lime)"/><rect class="b" style="animation-delay:0.5s" x="94" y="180.7" width="11" height="199.3" rx="2" fill="url(#lime)"/><rect class="b" style="animation-delay:0.4s" x="111" y="192.5" width="11" height="187.5" rx="2" fill="url(#lime)"/><rect class="b" style="animation-delay:1.3s" x="128" y="167" width="11" height="213" rx="2" fill="url(#lime)"/><rect class="b" style="animation-delay:0.1s" x="145" y="140.1" width="11" height="239.9" rx="2" fill="url(#lime)"/><rect class="b" style="animation-delay:0.7s" x="162" y="158.1" width="11" height="221.9" rx="2" fill="url(#lime)"/><rect class="b" style="animation-delay:0.4s" x="179" y="170.9" width="11" height="209.1" rx="2" fill="url(#lime)"/><rect class="b" style="animation-delay:0.2s" x="196" y="137.4" width="11" height="242.6" rx="2" fill="url(#lime)"/><rect class="b" style="animation-delay:1.3s" x="213" y="173.9" width="11" height="206.1" rx="2" fill="url(#lime)"/><rect class="b" style="animation-delay:0.7s" x="230" y="185.5" width="11" height="194.5" rx="2" fill="url(#lime)"/><rect class="b" style="animation-delay:0.1s" x="247" y="158.5" width="11" height="221.5" rx="2" fill="url(#lime)"/><rect class="b" style="animation-delay:1.4s" x="264" y="206.6" width="11" height="173.4" rx="2" fill="url(#lime)"/><rect class="b" style="animation-delay:0.5s" x="281" y="196.2" width="11" height="183.8" rx="2" fill="url(#lime)"/><rect class="b" style="animation-delay:1.7s" x="298" y="231.1" width="11" height="148.9" rx="2" fill="url(#lime)"/><rect class="b" style="animation-delay:0.5s" x="315" y="242.1" width="11" height="137.9" rx="2" fill="url(#lime)"/><rect class="b" style="animation-delay:1s" x="332" y="261.4" width="11" height="118.6" rx="2" fill="url(#lime)"/><rect class="b" style="animation-delay:1.1s" x="349" y="295.6" width="11" height="84.4" rx="2" fill="url(#lime)"/><rect class="b" style="animation-delay:1.5s" x="366" y="311.8" width="11" height="68.2" rx="2" fill="url(#lime)"/><rect class="b" style="animation-delay:0.7s" x="383" y="294.6" width="11" height="85.4" rx="2" fill="url(#lime)"/><rect class="b" style="animation-delay:0.5s" x="400" y="332" width="11" height="48" rx="2" fill="url(#lime)"/><rect class="b" style="animation-delay:0.6s" x="417" y="329.3" width="11" height="50.7" rx="2" fill="url(#lime)"/><rect class="b" style="animation-delay:0.2s" x="434" y="342.5" width="11" height="37.5" rx="2" fill="url(#lime)"/><rect class="b" style="animation-delay:1.5s" x="451" y="342.8" width="11" height="37.2" rx="2" fill="url(#lime)"/><rect class="b" style="animation-delay:0.6s" x="468" y="345.7" width="11" height="34.3" rx="2" fill="url(#lime)"/><rect class="b" style="animation-delay:1.5s" x="485" y="331.2" width="11" height="48.8" rx="2" fill="url(#lime)"/><rect class="b" style="animation-delay:1.8s" x="502" y="315.1" width="11" height="64.9" rx="2" fill="url(#lime)"/><rect class="b" style="animation-delay:0.8s" x="519" y="335.5" width="11" height="44.5" rx="2" fill="url(#lime)"/><rect class="b" style="animation-delay:0.8s" x="536" y="302.9" width="11" height="77.1" rx="2" fill="url(#lime)"/><rect class="b" style="animation-delay:1.4s" x="553" y="312.6" width="11" height="67.4" rx="2" fill="url(#lime)"/><rect class="b" style="animation-delay:0.9s" x="570" y="293.9" width="11" height="86.1" rx="2" fill="url(#lime)"/><rect class="b" style="animation-delay:1.4s" x="587" y="302.8" width="11" height="77.2" rx="2" fill="url(#lime)"/><rect class="b" style="animation-delay:0.3s" x="604" y="268.5" width="11" height="111.5" rx="2" fill="url(#lime)"/><rect class="b" style="animation-delay:1.9s" x="621" y="256.2" width="11" height="123.8" rx="2" fill="url(#lime)"/><rect class="b" style="animation-delay:1.4s" x="638" y="280.4" width="11" height="99.6" rx="2" fill="url(#lime)"/><rect class="b" style="animation-delay:0.3s" x="655" y="260.8" width="11" height="119.2" rx="2" fill="url(#lime)"/><rect class="b" style="animation-delay:1.1s" x="672" y="236.3" width="11" height="143.7" rx="2" fill="url(#lime)"/><rect class="b" style="animation-delay:1.8s" x="689" y="259.6" width="11" height="120.4" rx="2" fill="url(#lime)"/><rect class="b" style="animation-delay:1.2s" x="706" y="256.3" width="11" height="123.7" rx="2" fill="url(#lime)"/><rect class="b" style="animation-delay:1.6s" x="723" y="273.6" width="11" height="106.4" rx="2" fill="url(#lime)"/></g><path d="M60 300L80 228.3L100 208.1L120 191.1L140 178.3L160 170.7L180 168.7L200 172.3L220 181.1L240 194.2L260 210.4L280 228.1L300 245.8L320 261.9L340 275L360 283.7L380 287.3L400 285.3L420 277.6L440 264.8L460 247.7L480 227.6L500 205.8L520 184.1L540 164L560 147L580 134.2L600 126.7L620 124.7L640 128.4L660 137.3L680 150.4L700 166.5L720 184.3L740 202" stroke="#8cf523" stroke-width="2.5" filter="url(#g)"/>
</svg>
